<?xml version="1.0" encoding="UTF-8" standalone="no"?>
<!-- Generator: Adobe Illustrator 19.0.0, SVG Export Plug-In . SVG Version: 6.00 Build 0)  -->

<svg
   version="1.1"
   id="Capa_1"
   x="0px"
   y="0px"
   viewBox="0 0 354.325 354.325"
   style="enable-background:new 0 0 354.325 354.325;"
   xml:space="preserve"
   sodipodi:docname="garbagerest.svg"
   inkscape:version="1.1.1 (3bf5ae0d25, 2021-09-20)"
   xmlns:inkscape="http://www.inkscape.org/namespaces/inkscape"
   xmlns:sodipodi="http://sodipodi.sourceforge.net/DTD/sodipodi-0.dtd"
   xmlns="http://www.w3.org/2000/svg"
   xmlns:svg="http://www.w3.org/2000/svg"><defs
   id="defs37" /><sodipodi:namedview
   id="namedview35"
   pagecolor="#ffffff"
   bordercolor="#999999"
   borderopacity="1"
   inkscape:pageshadow="0"
   inkscape:pageopacity="0"
   inkscape:pagecheckerboard="0"
   showgrid="false"
   inkscape:zoom="2.0292104"
   inkscape:cx="177.16251"
   inkscape:cy="177.16251"
   inkscape:window-width="1920"
   inkscape:window-height="1017"
   inkscape:window-x="-8"
   inkscape:window-y="-8"
   inkscape:window-maximized="1"
   inkscape:current-layer="Capa_1" />
<path
   d="M293.768,125.466l-41.577-17.221l17.222-41.577c3.17-7.653-0.465-16.428-8.118-19.599L150.427,1.146  C142.774-2.024,134,1.61,130.829,9.264l-17.223,41.578L72.038,33.624c-7.654-3.169-16.428,0.464-19.599,8.118  c-3.17,7.654,0.464,16.428,8.118,19.599l152.059,62.984h-5.454h-60h-60c-8.284,0-15,6.716-15,15v200c0,8.284,6.716,15,15,15h60h60  h60c8.284,0,15-6.716,15-15V153.131l0.125,0.052c1.878,0.777,3.821,1.146,5.734,1.146c5.886,0,11.472-3.487,13.864-9.264  C305.056,137.411,301.421,128.637,293.768,125.466z M152.805,34.603l83.152,34.443l-11.481,27.718L141.323,62.32L152.805,34.603z   M102.163,154.325h30v170h-30V154.325z M162.163,154.325h30v170h-30V154.325z M252.163,324.325h-30v-170h30V324.325z"
   id="path2"
   style="fill:#cccccc" />
<g
   id="g4">
</g>
<g
   id="g6">
</g>
<g
   id="g8">
</g>
<g
   id="g10">
</g>
<g
   id="g12">
</g>
<g
   id="g14">
</g>
<g
   id="g16">
</g>
<g
   id="g18">
</g>
<g
   id="g20">
</g>
<g
   id="g22">
</g>
<g
   id="g24">
</g>
<g
   id="g26">
</g>
<g
   id="g28">
</g>
<g
   id="g30">
</g>
<g
   id="g32">
</g>
</svg>
